<?xml version="1.0" standalone="no"?><svg xmlns="http://www.w3.org/2000/svg" viewBox="0 0 1440 320"><path fill="#000000" fill-opacity="1" d="M0,64L26.7,69.3C53.3,75,107,85,160,106.7C213.3,128,267,160,320,165.3C373.3,171,427,149,480,154.7C533.3,160,587,192,640,218.7C693.3,245,747,267,800,282.7C853.3,299,907,309,960,272C1013.3,235,1067,149,1120,138.7C1173.3,128,1227,192,1280,181.3C1333.3,171,1387,85,1413,42.7L1440,0L1440,320L1413.3,320C1386.7,320,1333,320,1280,320C1226.7,320,1173,320,1120,320C1066.7,320,1013,320,960,320C906.7,320,853,320,800,320C746.7,320,693,320,640,320C586.7,320,533,320,480,320C426.7,320,373,320,320,320C266.7,320,213,320,160,320C106.7,320,53,320,27,320L0,320Z"></path></svg>